<?xml version="1.0" standalone="no"?>
<!DOCTYPE svg PUBLIC "-//W3C//DTD SVG 20010904//EN"
 "http://www.w3.org/TR/2001/REC-SVG-20010904/DTD/svg10.dtd">
<svg version="1.0" xmlns="http://www.w3.org/2000/svg"
 width="512.000000pt" height="512.000000pt" viewBox="0 0 512.000000 512.000000"
 preserveAspectRatio="xMidYMid meet">

<g transform="translate(0.000000,512.000000) scale(0.100000,-0.100000)"
fill="#000000" stroke="none">
<path d="M2370 5114 c-19 -2 -78 -9 -130 -15 -791 -90 -1522 -586 -1924 -1305
-146 -262 -253 -589 -297 -914 -21 -146 -18 -507 4 -665 37 -255 115 -516 224
-746 l54 -115 -55 -105 c-153 -290 -246 -578 -246 -764 1 -313 218 -505 542
-481 179 14 365 74 634 207 l181 89 124 -59 c650 -308 1435 -319 2095 -30 115
50 286 141 330 175 103 77 95 242 -15 319 -36 25 -52 30 -104 30 -38 0 -73 -6
-92 -16 -168 -91 -236 -124 -330 -162 -449 -180 -938 -205 -1401 -72 -96 28
-206 66 -202 70 2 2 70 51 152 110 231 165 403 302 425 339 42 67 37 162 -13
229 -26 35 -110 77 -155 77 -52 -1 -104 -28 -211 -111 -534 -418 -1026 -703
-1343 -779 -83 -20 -144 -25 -184 -14 -64 17 -24 248 83 484 l37 80 35 -41
c82 -95 208 -104 295 -21 43 41 60 81 60 142 0 66 -3 72 -105 208 -701 931
-542 2240 362 2978 763 623 1862 644 2657 50 119 -89 168 -107 239 -88 87 23
139 80 150 163 9 65 -11 124 -56 169 l-38 38 76 35 c171 77 338 123 423 115
27 -3 52 -8 55 -11 15 -15 15 -102 -1 -178 -46 -227 -221 -576 -479 -951 -142
-208 -146 -214 -146 -275 0 -63 13 -99 48 -136 46 -49 98 -70 163 -65 80 6
116 34 201 155 40 56 73 101 75 99 2 -2 17 -43 34 -92 212 -623 134 -1290
-217 -1854 -56 -91 -59 -98 -59 -162 0 -58 4 -72 30 -109 41 -58 94 -84 170
-84 105 0 142 37 269 261 151 268 256 580 302 899 27 182 25 534 -4 720 -41
259 -112 494 -217 714 l-56 116 79 155 c225 446 276 754 160 971 -75 142 -235
228 -423 229 -186 0 -479 -94 -764 -246 l-104 -56 -116 55 c-337 160 -662 235
-1046 242 -110 2 -216 1 -235 -1z"/>
<path d="M3718 2835 c-249 -69 -333 -118 -535 -318 l-161 -159 -109 21 c-201
39 -371 51 -434 30 -51 -17 -94 -53 -114 -95 -9 -20 -44 -129 -77 -243 -48
-167 -58 -215 -54 -254 13 -124 131 -201 255 -167 36 9 66 33 156 121 61 60
116 109 121 109 5 0 65 -56 133 -124 l124 -124 -111 -121 c-84 -92 -114 -132
-123 -164 -23 -85 10 -176 80 -222 66 -44 95 -42 332 23 118 33 232 67 253 77
47 22 81 67 97 127 16 57 0 270 -31 418 l-19 94 167 171 c152 154 173 179 214
260 61 122 128 331 128 402 0 50 -41 114 -90 140 -54 28 -91 28 -202 -2z"/>
</g>
</svg>
